<?xml version="1.0" encoding="utf-8"?>
<svg version="1.1" xmlns="http://www.w3.org/2000/svg" xmlns:xlink="http://www.w3.org/1999/xlink" x="0px" y="0px" viewBox="0 0 256 256" enable-background="new 0 0 256 256" xml:space="preserve">
<g><g><path fill="#000000" d="M30.8,213.1c-0.9,0-1.8-0.3-2.6-0.8l-15.9-10.3c-1.3-0.8-2-2.1-2.2-3.6c-0.1-1.5,0.4-2.9,1.5-4c0.1-0.1,15.1-14.6,19.6-37.7c-2.9-2.7-7.2-7.7-6.8-13.7c0.2-2.9,1.5-6.9,6.7-10.5c0.1-6.5,1-21.1,7.7-29.4L16.3,92.6c-1.8-0.8-2.8-2.6-2.7-4.6c0.1-2,1.3-3.6,3.2-4.3l110.8-40.5c1.1-0.4,2.3-0.4,3.3,0l111.9,41.1c1.9,0.7,3.2,2.5,3.2,4.5c0,2-1.3,3.8-3.2,4.6L131,135c-1.1,0.4-2.3,0.4-3.4,0l-55.2-20.6c-1.9-0.7-3.1-2.5-3.2-4.5c0-2,1.2-3.8,3-4.6l57.5-23.2c0-0.4,0.1-0.7,0.1-1l-66.5,26.5c-0.5,0.2-12,5.2-12.4,25.6c1.7,1.6,3.7,4.4,4.2,8.2c0.6,4.1-0.8,8.3-3.9,12.4c1.4,10.1,5.3,50.3-18.9,59.1C31.9,213,31.3,213.1,30.8,213.1z"/><path fill="#000000" d="M129.8,183.2c-21.9,0-51.6-3.7-69.1-21.2c-1.7-1.7-1.9-4.4-0.5-6.3c1.1-1.6,3.9-6.6,3-11c-0.5-2.5-2-4.5-4.8-6.2c-1.4-0.9-2.3-2.4-2.3-4.1V119c0-1.6,0.7-3,2-3.9c1.3-0.9,2.9-1.2,4.4-0.7l69.3,23.1l68.2-23.1c1.5-0.5,3.1-0.3,4.4,0.6c1.3,0.9,2,2.4,2,3.9v35.9c0,0.3,0,0.7-0.1,0.9c-0.5,2.7-5.4,16.4-48.9,25.3C156.7,181.4,145.3,183.2,129.8,183.2z"/></g></g>
</svg>